<?xml version="1.0" standalone="no"?>
<!DOCTYPE svg PUBLIC "-//W3C//DTD SVG 20010904//EN"
 "http://www.w3.org/TR/2001/REC-SVG-20010904/DTD/svg10.dtd">
<svg version="1.0" xmlns="http://www.w3.org/2000/svg"
 width="132.000000pt" height="102.000000pt" viewBox="0 0 132.000000 102.000000"
 preserveAspectRatio="xMidYMid meet">

<g transform="translate(0.000000,102.000000) scale(0.100000,-0.100000)"
fill="#000000" stroke="none">
<path d="M379 880 c-119 -8 -141 -14 -172 -47 -22 -25 -24 -54 -14 -248 13
-242 22 -252 211 -240 l115 7 10 -40 c18 -66 37 -72 251 -84 281 -17 275 -22
285 267 10 258 16 251 -222 264 l-117 6 -11 39 c-6 21 -24 49 -39 62 -30 27
-66 28 -297 14z m290 -26 c22 -18 31 -35 31 -55 0 -28 -2 -29 -43 -29 -32 0
-51 -7 -76 -28 -30 -25 -33 -33 -38 -96 -6 -66 -8 -70 -58 -124 l-52 -56 -50
42 c-27 23 -54 42 -59 42 -5 0 -30 -20 -54 -45 -24 -25 -47 -45 -51 -45 -11 0
-21 323 -11 351 15 38 51 48 207 57 228 14 220 15 254 -14z m245 -114 c91 -7
102 -10 123 -34 27 -31 28 -49 13 -265 -11 -155 -20 -184 -66 -201 -30 -12
-356 6 -395 21 -50 19 -54 41 -42 247 10 199 17 224 63 241 25 9 108 7 304 -9z
m-382 -277 c-2 -49 -6 -91 -10 -95 -4 -4 -62 -8 -129 -10 -117 -3 -123 -2
-147 21 -14 14 -26 32 -26 40 0 9 23 40 51 68 l51 53 47 -40 c26 -22 54 -40
63 -40 8 0 33 20 54 44 22 24 41 45 44 45 3 1 4 -38 2 -86z"/>
<path d="M280 780 c-11 -11 -20 -24 -20 -30 0 -15 38 -50 54 -50 14 0 46 36
46 52 0 11 -38 48 -50 48 -5 0 -19 -9 -30 -20z m55 -30 c0 -18 -6 -26 -23 -28
-24 -4 -38 18 -28 44 3 9 15 14 28 12 17 -2 23 -10 23 -28z"/>
<path d="M700 625 c-8 -10 -13 -55 -14 -131 -1 -155 -1 -156 139 -86 97 48
105 54 105 81 0 26 -11 36 -94 90 -100 65 -116 70 -136 46z m130 -62 c47 -32
86 -66 88 -75 2 -13 -22 -30 -98 -68 -132 -66 -134 -65 -125 79 4 58 9 109 12
114 10 17 44 3 123 -50z"/>
</g>
</svg>
