<?xml version="1.0" standalone="no"?>
<!DOCTYPE svg PUBLIC "-//W3C//DTD SVG 20010904//EN"
 "http://www.w3.org/TR/2001/REC-SVG-20010904/DTD/svg10.dtd">
<svg version="1.0" xmlns="http://www.w3.org/2000/svg"
 width="111.000000pt" height="89.000000pt" viewBox="0 0 111.000000 89.000000"
 preserveAspectRatio="xMidYMid meet">

<g transform="translate(0.000000,89.000000) scale(0.100000,-0.100000)"
fill="#000000" stroke="none">
<path d="M480 754 c-227 -61 -301 -342 -135 -509 79 -79 180 -108 284 -81 120
31 198 110 228 231 15 60 15 70 0 130 -30 119 -108 200 -223 230 -70 18 -83
18 -154 -1z m200 -25 c187 -83 233 -328 88 -476 -183 -186 -501 -55 -502 207
0 214 218 355 414 269z"/>
<path d="M497 590 c-14 -11 -33 -20 -42 -20 -9 0 -25 -5 -36 -10 -17 -10 -19
-22 -19 -113 0 -67 4 -107 12 -115 17 -17 279 -17 296 0 7 7 11 23 11 38 -1
20 -2 21 -6 5 -11 -42 -21 -45 -152 -45 -85 0 -131 4 -139 12 -8 8 -12 46 -12
105 0 81 2 94 19 103 11 5 28 10 39 10 10 0 27 9 37 20 11 13 31 20 52 20 20
0 46 -9 60 -20 14 -11 35 -19 47 -19 20 1 20 2 1 6 -11 3 -31 14 -44 24 -32
25 -91 25 -124 -1z"/>
<path d="M702 540 c14 -22 24 -19 15 5 -4 8 -11 15 -17 15 -6 0 -6 -7 2 -20z"/>
<path d="M525 518 c-49 -26 -59 -77 -24 -122 29 -37 89 -37 118 0 35 45 26 95
-20 119 -33 18 -47 18 -74 3z m80 -23 c30 -29 32 -68 5 -95 -41 -41 -120 -12
-120 45 0 31 41 75 70 75 12 0 32 -11 45 -25z"/>
</g>
</svg>
